<?xml version="1.0" encoding="UTF-8"?>
<svg version="1.1" xmlns="http://www.w3.org/2000/svg" width="500" height="500">
<path d="M0 0 C0.91335114 -0.00974854 1.82670227 -0.01949707 2.76773071 -0.02954102 C22.95457164 -0.200625 42.39146748 0.06755979 62.2265625 4.23828125 C63.1252002 4.41488281 64.02383789 4.59148438 64.94970703 4.7734375 C120.55605654 15.81496305 174.49853584 48.0738528 209.2265625 93.23828125 C209.67177246 93.8017627 210.11698242 94.36524414 210.57568359 94.94580078 C245.28056253 138.87558159 264.03780186 193.53852819 263.6640625 249.42578125 C263.65950043 250.88822769 263.65950043 250.88822769 263.65484619 252.38021851 C263.58173181 268.30761814 262.60513447 283.62588474 259.2265625 299.23828125 C259.01225586 300.25535156 258.79794922 301.27242188 258.57714844 302.3203125 C246.70265886 357.28519877 215.92177667 409.58836415 171.2265625 444.23828125 C169.78990234 445.40037109 169.78990234 445.40037109 168.32421875 446.5859375 C146.52366239 463.93291236 121.57621451 477.29848018 95.2265625 486.23828125 C94.33565918 486.54604492 93.44475586 486.85380859 92.52685547 487.17089844 C71.07358355 494.48373236 48.17943832 499.27460096 25.453125 499.4765625 C24.53977386 499.48631104 23.62642273 499.49605957 22.68539429 499.50610352 C2.49855336 499.6771875 -16.93834248 499.40900271 -36.7734375 495.23828125 C-37.6720752 495.06167969 -38.57071289 494.88507813 -39.49658203 494.703125 C-95.10293154 483.66159945 -149.04541084 451.4027097 -183.7734375 406.23828125 C-184.21864746 405.6747998 -184.66385742 405.11131836 -185.12255859 404.53076172 C-215.35183647 366.26624123 -237.02081001 316.29152549 -237.109375 266.99609375 C-237.11583647 265.65729648 -237.122567 264.31850048 -237.12954712 262.97970581 C-237.14142153 260.18793483 -237.14523875 257.39628657 -237.14404297 254.60449219 C-237.14388138 251.79465729 -237.15763247 248.98548104 -237.18505859 246.17578125 C-237.35146256 228.85016617 -236.66661156 212.20272486 -232.7734375 195.23828125 C-232.49097168 193.99159668 -232.20850586 192.74491211 -231.91748047 191.46044922 C-231.18780597 188.48590184 -230.38668642 185.55152386 -229.5234375 182.61328125 C-229.0752063 181.06265991 -229.0752063 181.06265991 -228.61791992 179.48071289 C-219.1890245 147.61695926 -204.0974994 117.79277394 -182.7734375 92.23828125 C-182.07033447 91.38290771 -182.07033447 91.38290771 -181.35302734 90.51025391 C-170.65459645 77.51645746 -159.09518293 65.56595018 -145.7734375 55.23828125 C-144.81566406 54.46355469 -143.85789062 53.68882813 -142.87109375 52.890625 C-121.07053739 35.54365014 -96.12308951 22.17808232 -69.7734375 13.23828125 C-68.43708252 12.77663574 -68.43708252 12.77663574 -67.07373047 12.30566406 C-45.62045855 4.99283014 -22.72631332 0.20196154 0 0 Z M93.2265625 141.23828125 C93.2265625 155.42828125 93.2265625 169.61828125 93.2265625 184.23828125 C99.1665625 184.23828125 105.1065625 184.23828125 111.2265625 184.23828125 C111.2265625 170.04828125 111.2265625 155.85828125 111.2265625 141.23828125 C105.2865625 141.23828125 99.3465625 141.23828125 93.2265625 141.23828125 Z M49.2265625 162.23828125 C49.2265625 184.67828125 49.2265625 207.11828125 49.2265625 230.23828125 C55.1665625 230.23828125 61.1065625 230.23828125 67.2265625 230.23828125 C67.2265625 207.79828125 67.2265625 185.35828125 67.2265625 162.23828125 C61.2865625 162.23828125 55.3465625 162.23828125 49.2265625 162.23828125 Z M138.2265625 162.23828125 C138.2265625 184.67828125 138.2265625 207.11828125 138.2265625 230.23828125 C144.1665625 230.23828125 150.1065625 230.23828125 156.2265625 230.23828125 C156.2265625 207.79828125 156.2265625 185.35828125 156.2265625 162.23828125 C150.2865625 162.23828125 144.3465625 162.23828125 138.2265625 162.23828125 Z M-174.7734375 195.23828125 C-174.7734375 231.53828125 -174.7734375 267.83828125 -174.7734375 305.23828125 C-168.5034375 305.23828125 -162.2334375 305.23828125 -155.7734375 305.23828125 C-155.7734375 268.93828125 -155.7734375 232.63828125 -155.7734375 195.23828125 C-162.0434375 195.23828125 -168.3134375 195.23828125 -174.7734375 195.23828125 Z M4.2265625 196.23828125 C4.2265625 231.87828125 4.2265625 267.51828125 4.2265625 304.23828125 C10.4965625 304.23828125 16.7665625 304.23828125 23.2265625 304.23828125 C23.2265625 268.59828125 23.2265625 232.95828125 23.2265625 196.23828125 C16.9565625 196.23828125 10.6865625 196.23828125 4.2265625 196.23828125 Z M182.2265625 196.23828125 C182.2265625 231.87828125 182.2265625 267.51828125 182.2265625 304.23828125 C188.1665625 304.23828125 194.1065625 304.23828125 200.2265625 304.23828125 C200.2265625 268.59828125 200.2265625 232.95828125 200.2265625 196.23828125 C194.2865625 196.23828125 188.3465625 196.23828125 182.2265625 196.23828125 Z M-129.7734375 270.23828125 C-129.7734375 292.67828125 -129.7734375 315.11828125 -129.7734375 338.23828125 C-123.8334375 338.23828125 -117.8934375 338.23828125 -111.7734375 338.23828125 C-111.7734375 315.79828125 -111.7734375 293.35828125 -111.7734375 270.23828125 C-117.7134375 270.23828125 -123.6534375 270.23828125 -129.7734375 270.23828125 Z M-40.7734375 270.23828125 C-40.7734375 292.67828125 -40.7734375 315.11828125 -40.7734375 338.23828125 C-34.8334375 338.23828125 -28.8934375 338.23828125 -22.7734375 338.23828125 C-22.7734375 315.79828125 -22.7734375 293.35828125 -22.7734375 270.23828125 C-28.7134375 270.23828125 -34.6534375 270.23828125 -40.7734375 270.23828125 Z M-84.7734375 316.23828125 C-84.7734375 330.42828125 -84.7734375 344.61828125 -84.7734375 359.23828125 C-78.8334375 359.23828125 -72.8934375 359.23828125 -66.7734375 359.23828125 C-66.7734375 345.04828125 -66.7734375 330.85828125 -66.7734375 316.23828125 C-72.7134375 316.23828125 -78.6534375 316.23828125 -84.7734375 316.23828125 Z " fill="#FA8A2F" transform="translate(236.7734375,-0.23828125)"/>
</svg>
